<?xml version="1.0" encoding="UTF-8" ?>
						<svg id="logoDark" data-name="logoDark" xmlns="http://www.w3.org/2000/svg" width="158.9" height="83.73" viewBox="0 0 158.9 83.73">
                            <defs>
                                <style>
                                    .cls-1 {
                                        fill: #7ec242;
                                    }

                                    .cls-2 {
                                        fill: #323d47;
                                    }
                                </style>
                            </defs>
                            <title>LG-logo</title>
                            <path class="cls-1" d="M82.39,18.22h0a9.57,9.57,0,0,0-9.58-9.58H69.91a9.58,9.58,0,1,0,0,19.15h2.91a9.57,9.57,0,0,1,8.34,4.87h1.24V18.22Z" />
                            <path class="cls-1" d="M113,28.08A11.07,11.07,0,0,0,102,17H96.24A11.07,11.07,0,0,0,85.17,28.08h0V45.16H86.4a11.07,11.07,0,0,1,9.85-6H102A11.07,11.07,0,0,0,113,28.08" />
                            <path class="cls-1" d="M95.81,14a7,7,0,0,0,0-14H92.17a7,7,0,0,0-7,7h0V17.68h1.2a10.21,10.21,0,0,1,2.32-1.81A13.84,13.84,0,0,1,95.81,14" />
                            <path class="cls-2" d="M0,36.42H5.91V57.89H18v5.37H2.91A2.91,2.91,0,0,1,0,60.35V36.42Z" />
                            <path class="cls-2" d="M17.34,49.92V49.84A13.78,13.78,0,0,1,31.41,36c4.83,0,7.75,1.3,10.54,3.68l-3.72,4.49a9.88,9.88,0,0,0-7-2.72c-4.29,0-7.71,3.8-7.71,8.36v0.08c0,4.91,3.37,8.51,8.13,8.51a9.42,9.42,0,0,0,5.56-1.61V52.91H31.26v-5.1H40a2.91,2.91,0,0,1,2.91,2.91v8.74a17.42,17.42,0,0,1-11.46,4.26c-8.36,0-14.11-5.87-14.11-13.8" />
                            <path class="cls-2" d="M47.36,36.42h5.91V60.35a2.91,2.91,0,0,1-2.91,2.91h-3V36.42Z" />
                            <path class="cls-2" d="M84.8,60l1.1-1.69a8.74,8.74,0,0,0,4.87,1.85c1.27,0,1.85-.46,1.85-1.15V59c0-1-1.5-1.27-3.2-1.79-2.16-.63-4.62-1.64-4.62-4.64V52.47c0-3.14,2.54-4.9,5.65-4.9a10.7,10.7,0,0,1,5.77,1.79l-1.67,3a9.16,9.16,0,0,0-4.18-1.44c-1.07,0-1.61.46-1.61,1.07v0.06c0,0.87,1.47,1.27,3.14,1.85,2.16,0.72,4.67,1.76,4.67,4.59v0.06c0,3.43-2.57,5-5.91,5A10.77,10.77,0,0,1,85.25,62a1.44,1.44,0,0,1-.44-2" />
                            <path class="cls-2" d="M98.47,57.81v-10h2.93a1.46,1.46,0,0,1,1.46,1.46v7.17c0,2.08,1,3.14,2.65,3.14s2.74-1.07,2.74-3.14V47.8h4.38V63.26h-4.38V61.07a5.47,5.47,0,0,1-4.53,2.48c-3.32,0-5.25-2.19-5.25-5.74" />
                            <path class="cls-2" d="M115.37,47.8h4.38V50a5.68,5.68,0,0,1,4.82-2.51c3.61,0,7,2.83,7,8v0.06c0,5.16-3.37,8-7,8a5.94,5.94,0,0,1-4.82-2.31v5.18a1.46,1.46,0,0,1-1.46,1.46h-2.93V47.8Zm11.85,7.76V55.5c0-2.57-1.73-4.27-3.78-4.27s-3.75,1.7-3.75,4.27v0.06c0,2.57,1.7,4.27,3.75,4.27s3.78-1.67,3.78-4.27" />
                            <path class="cls-2" d="M132.83,55.61V55.56c0-4.41,3.14-8,7.64-8,5.16,0,7.53,4,7.53,8.39,0,0.35,0,.75-0.06,1.15H137.19a3.59,3.59,0,0,0,3.78,3,5.07,5.07,0,0,0,3.75-1.59l2.51,2.22a8.17,8.17,0,0,1-14.39-5.11m10.9-1.3c-0.26-2-1.41-3.29-3.26-3.29s-3,1.3-3.35,3.29h6.6Z" />
                            <path class="cls-2" d="M149.58,47.8H154v3.11c0.89-2.13,2.34-3.52,4.93-3.4v4.59h-0.23c-2.91,0-4.7,1.76-4.7,5.45v5.71H151a1.46,1.46,0,0,1-1.46-1.46v-14Z" />
                            <path class="cls-2" d="M69.89,36.41H66.22L54.8,63.26h6l2.45-6H74.62l2.45,6h6.17L72.58,38.18a2.91,2.91,0,0,0-2.68-1.77M65.38,52l3.57-8.7L72.51,52H65.38Z" />
                            <path class="cls-1" d="M47.36,71.94h2v9.74h5.21v1.85H48.09a0.73,0.73,0,0,1-.73-0.73V71.94Z" />
                            <path class="cls-1" d="M55.11,79.19v0a4.34,4.34,0,0,1,4.27-4.55c2.78,0,4.19,2.19,4.19,4.7,0,0.18,0,.36,0,0.56H57.12a2.44,2.44,0,0,0,2.52,2.22A3.18,3.18,0,0,0,62,81l1.18,1a4.42,4.42,0,0,1-3.58,1.64,4.36,4.36,0,0,1-4.49-4.54m6.47-.65a2.27,2.27,0,0,0-2.22-2.3,2.37,2.37,0,0,0-2.27,2.3h4.49Z" />
                            <path class="cls-1" d="M65.63,81.11v-4.6H64.52V74.79h1.11V72.55h1.28a0.73,0.73,0,0,1,.73.73v1.51H70v1.72H67.63V80.8a1,1,0,0,0,1.08,1.09,2.69,2.69,0,0,0,1.24-.3v1.64a3.51,3.51,0,0,1-1.8.45,2.24,2.24,0,0,1-2.52-2.57" />
                            <path class="cls-1" d="M73.79,81.79l0.5-.76a4.91,4.91,0,0,0,2.86,1.08c0.86,0,1.36-.36,1.36-0.94v0c0-.68-0.93-0.91-2-1.22-1.29-.36-2.73-0.89-2.73-2.57v0c0-1.66,1.37-2.67,3.11-2.67a6.06,6.06,0,0,1,3.21,1l-0.79,1.42a5.07,5.07,0,0,0-2.47-.83,1,1,0,0,0-1.23.88v0c0,0.63.94,0.89,2,1.22,1.28,0.4,2.72,1,2.72,2.55v0c0,1.84-1.42,2.75-3.25,2.75a6.11,6.11,0,0,1-3.1-.89,0.72,0.72,0,0,1-.22-1" />
                            <path class="cls-1" d="M84.83,77.77v0a5.9,5.9,0,0,1,6-6,6.25,6.25,0,0,1,4.45,1.57L94,74.85a4.54,4.54,0,0,0-3.24-1.24A3.92,3.92,0,0,0,87,77.7v0a3.87,3.87,0,0,0,3.94,4.14A4.73,4.73,0,0,0,93.7,81V78.83h-3V77.05h4.2a0.73,0.73,0,0,1,.73.73v4.14a7.39,7.39,0,0,1-4.83,1.8,5.75,5.75,0,0,1-6-6" />
                            <path class="cls-1" d="M97.81,74.78h2v2a3.1,3.1,0,0,1,3.1-2.14v2.12h-0.12c-1.75,0-3,1.14-3,3.46v3.33H98.54a0.73,0.73,0,0,1-.73-0.73v-8Z" />
                            <path class="cls-1" d="M103.31,79.21v0a4.66,4.66,0,0,1,9.32,0v0A4.57,4.57,0,0,1,108,83.73a4.52,4.52,0,0,1-4.64-4.52m7.32,0v0A2.7,2.7,0,0,0,108,76.36a2.62,2.62,0,0,0-2.63,2.78v0A2.71,2.71,0,0,0,108,82a2.64,2.64,0,0,0,2.65-2.78" />
                            <polygon class="cls-1" points="112.87 74.78 114.92 74.78 116.68 80.78 118.62 74.75 120.32 74.75 122.28 80.78 124.06 74.78 126.07 74.78 123.2 83.59 121.42 83.59 119.46 77.62 117.49 83.59 115.7 83.59 112.87 74.78" />
                            <path class="cls-1" d="M71.7,73.68h0a1.12,1.12,0,0,1,1.12-1.12h0.34a1.12,1.12,0,1,1,0,2.23H72.81a1.12,1.12,0,0,0-1,.57H71.7V73.68Z" />
                        </svg>